<?xml version="1.0" encoding="UTF-8" standalone="no"?>
<svg width="83px" height="79px" viewBox="0 0 83 79" version="1.1" xmlns="http://www.w3.org/2000/svg" xmlns:xlink="http://www.w3.org/1999/xlink">
    <!-- Generator: Sketch 39.1 (31720) - http://www.bohemiancoding.com/sketch -->
    <title>noun_370528_cc</title>
    <desc>Created with Sketch.</desc>
    <defs></defs>
    <g id="Page-1" stroke="none" stroke-width="1" fill="none" fill-rule="evenodd">
        <g id="noun_370528_cc" fill="#F8B82C">
            <g id="Group">
                <path d="M46.5,4 L52.4,22.1 C53.1,24.4 55.2,25.9 57.6,25.9 L76.6,25.9 C81.9,25.9 84.1,32.7 79.8,35.8 L64.4,47.1 C62.5,48.5 61.7,51 62.4,53.2 L68.3,71.3 C69.9,76.4 64.2,80.6 59.9,77.4 L44.5,66.2 C42.6,64.8 40,64.8 38.1,66.2 L22.6,77.4 C18.3,80.5 12.5,76.3 14.2,71.3 L20.1,53.2 C20.8,50.9 20,48.5 18.1,47.1 L2.7,35.9 C-1.6,32.8 0.6,26 5.9,26 L24.9,26 C27.3,26 29.4,24.5 30.1,22.2 L36,4 C37.7,-1 44.8,-1 46.5,4 L46.5,4 Z" id="Shape"></path>
            </g>
        </g>
    </g>
</svg>