<?xml version="1.0" encoding="UTF-8" standalone="no"?>
<svg width="60px" height="60px" viewBox="0 0 60 60" version="1.1" xmlns="http://www.w3.org/2000/svg" xmlns:xlink="http://www.w3.org/1999/xlink">
    <title>icon-key</title>
    <g id="Page-1" stroke="none" stroke-width="1" fill="none" fill-rule="evenodd">
        <g id="noun_130908" fill="#2AB27B">
            <path d="M1.77520879,1.81652967 C1.68231354,1.91759503 1.62298257,2.04494012 1.60536264,2.18107912 L0.00712087912,14.684156 C-0.0188871754,14.8882462 0.0510627311,15.0928825 0.196559864,15.2383538 C0.342056996,15.3838251 0.546705637,15.4537388 0.750791209,15.4276945 L9.27540659,14.3378044 L8.18551648,22.8624198 C8.15946356,23.0665312 8.22939353,23.2712068 8.37489668,23.4167099 C8.52039984,23.5622131 8.72507537,23.632143 8.92918681,23.6060901 L17.4557802,22.518178 L16.3658901,31.0427934 C16.340188,31.2468165 16.4103462,31.4512539 16.5559121,31.5965077 L19.9693187,35.0099143 C18.4572062,41.6798572 20.4684341,48.6594535 25.297978,53.5020462 C33.0862089,61.2902754 45.7133686,61.2903345 53.5015385,53.502178 C57.24158,49.7621807 59.342714,44.6896226 59.3427128,39.4004137 C59.3427115,34.1112047 57.2415752,29.0386115 53.5015319,25.2985516 C48.6591567,20.4606766 41.6740361,18.4442258 34.998389,19.9571011 L15.2386088,0.196661538 C15.0930047,0.051196789 14.8882411,-0.0186322284 14.6841033,0.00756263736 L2.18036703,1.6058044 C2.02482093,1.62593495 1.88140288,1.70041144 1.77546593,1.81606813 M39.1766308,39.1768154 C41.2534631,37.0999959 44.6206686,37.0999959 46.6975319,39.1768154 C47.6948775,40.1741628 48.2551815,41.5268534 48.2551827,42.9373091 C48.2551839,44.3477649 47.6948824,45.7004481 46.6975385,46.6977824 C45.7002041,47.6951263 44.3475209,48.2554279 42.9370652,48.2554267 C41.5266094,48.2554254 40.1739189,47.6951215 39.1765714,46.6977758 C37.099752,44.6209126 37.099752,41.2537071 39.1765714,39.1768747" id="Shape"></path>
        </g>
    </g>
</svg>
