<?xml version="1.0" encoding="UTF-8" standalone="no"?>
<svg width="151px" height="151px" viewBox="0 0 151 151" version="1.1" xmlns="http://www.w3.org/2000/svg" xmlns:xlink="http://www.w3.org/1999/xlink">
    <title>icon-note</title>
    <g id="Page-1" stroke="none" stroke-width="1" fill="none" fill-rule="evenodd">
        <g id="icon-note" fill="#3AA3E3">
            <g id="Page-1">
                <g id="noun_78077_cc">
                    <g id="Group">
                        <g id="Shape">
                            <path d="M120.4,12.7 C121.6,13.9 121.7,15.7 120.6,16.7 L62.6,74.7 C61.5,75.8 59.7,75.7 58.6,74.5 C57.4,73.3 57.3,71.5 58.4,70.5 L116.4,12.5 C117.4,11.4 119.2,11.5 120.4,12.7 L120.4,12.7 L120.4,12.7 Z"></path>
                            <path d="M120.4,49.9 C121.6,51.1 121.7,52.9 120.6,53.9 L62.6,111.9 C61.5,113 59.7,112.9 58.6,111.7 C57.4,110.5 57.3,108.7 58.4,107.7 L116.4,49.7 C117.4,48.6 119.2,48.7 120.4,49.9 L120.4,49.9 L120.4,49.9 Z"></path>
                            <path d="M147.5,35.1 L116.3,3.7 C112.6,-4.61852778e-14 106.8,-4.61852778e-14 103.1,3.7 L81.1,26.1 C80.9,26.3 80.9,26.3 80.9,26.6 L20.4,87.3 C20.2,87.5 19.9,88 19.7,88.5 L0.7,146.6 C0.5,147.6 0.7,148.8 1.4,149.6 C2.5,150.7 3.2,150.9 3.9,150.9 C4.1,150.9 4.4,150.9 4.6,150.7 L64.2,132.7 C64.7,132.5 65.2,132.2 65.4,132 L125.6,70.8 C125.8,70.6 125.8,70.6 125.8,70.3 L147.5,48.3 C151.2,44.6 151.2,38.8 147.5,35.1 L147.5,35.1 L147.5,35.1 Z M8.6,143.5 L24.8,93.2 L36.8,95.9 L36.8,112.1 C36.8,113.8 38,115.1 39.8,115.1 L55.5,115.1 L59.2,128.3 L8.6,143.5 L8.6,143.5 L8.6,143.5 Z M144,44.2 L64.6,125 L59.5,109.6 L42.9,109 L43,92.4 L28.9,88 L108,8 C109.2,6.8 111.5,6.8 112.7,8 L144,39.5 C145.2,40.7 145.2,43 144,44.2 L144,44.2 L144,44.2 Z"></path>
                        </g>
                    </g>
                </g>
            </g>
        </g>
    </g>
</svg>
