<?xml version="1.0" encoding="UTF-8" standalone="no"?>
<svg width="90px" height="90px" viewBox="0 0 90 90" version="1.1" xmlns="http://www.w3.org/2000/svg" xmlns:xlink="http://www.w3.org/1999/xlink">
    <title>icon-success</title>
    <g id="Page-1" stroke="none" stroke-width="1" fill="none" fill-rule="evenodd">
        <g id="noun_338399_cc" fill="#2AB27B">
            <g id="Group">
                <path d="M45.012,0 C20.16,0 0,20.136 0,44.988 C0,69.84 20.16,90 45.012,90 C69.864,90 90,69.84 90,44.988 C90,20.136 69.864,0 45.012,0 L45.012,0 Z M66.893,36.382 L42.347,60.927 C42.253,61.021 42.158,61.116 42.04,61.21 C41.969,61.304 41.899,61.351 41.828,61.422 C41.474,61.729 41.121,61.988 40.791,62.224 C40.768,62.248 40.768,62.224 40.768,62.248 C40.414,62.46 40.084,62.649 39.731,62.743 C39.401,62.861 39.071,62.932 38.741,62.979 L38.246,62.979 C37.35,62.932 36.454,62.649 35.676,62.06 C35.605,62.036 35.535,61.989 35.464,61.919 C35.228,61.801 35.063,61.612 34.875,61.447 C34.781,61.376 34.686,61.282 34.616,61.211 L23.107,49.727 C21.669,48.265 20.961,46.898 21.009,45.624 C21.056,44.327 21.622,43.172 22.707,42.087 C23.792,41.002 24.994,40.413 26.291,40.342 C27.564,40.295 28.932,41.002 30.394,42.441 L38.34,50.387 L59.631,29.12 C61.069,27.658 62.437,26.951 63.734,26.998 C65.007,27.045 66.186,27.635 67.271,28.719 C68.356,29.804 68.945,30.982 68.992,32.256 C69.039,33.552 68.355,34.92 66.893,36.382 L66.893,36.382 Z" id="Shape"></path>
            </g>
        </g>
    </g>
</svg>
