<?xml version="1.0" encoding="UTF-8" standalone="no"?>
<svg width="21px" height="21px" viewBox="0 0 21 21" version="1.1" xmlns="http://www.w3.org/2000/svg" xmlns:xlink="http://www.w3.org/1999/xlink">
    <title>icon-search</title>
    <g id="Page-1" stroke="none" stroke-width="1" fill="none" fill-rule="evenodd">
        <path d="M20.5,19.086 L14.814,13.4 C15.867,12.045 16.5,10.348 16.5,8.5 C16.5,4.082 12.918,0.5 8.5,0.5 C4.082,0.5 0.5,4.082 0.5,8.5 C0.5,12.918 4.082,16.5 8.5,16.5 C10.349,16.5 12.045,15.867 13.4,14.814 L19.086,20.5 L20.5,19.086 L20.5,19.086 Z M8.5,14.5 C5.191,14.5 2.5,11.809 2.5,8.5 C2.5,5.191 5.191,2.5 8.5,2.5 C11.809,2.5 14.5,5.191 14.5,8.5 C14.5,11.809 11.809,14.5 8.5,14.5 L8.5,14.5 Z" id="Shape" fill="#7C7C7C"></path>
    </g>
</svg>
