<?xml version="1.0" standalone="no"?>
<!DOCTYPE svg PUBLIC "-//W3C//DTD SVG 20010904//EN"
 "http://www.w3.org/TR/2001/REC-SVG-20010904/DTD/svg10.dtd">
<svg version="1.0" xmlns="http://www.w3.org/2000/svg"
 width="300.000000pt" height="300.000000pt" viewBox="0 0 300.000000 300.000000"
 preserveAspectRatio="xMidYMid meet">
<metadata>
Created by potrace 1.11, written by Peter Selinger 2001-2013
</metadata>
<g transform="translate(0.000000,300.000000) scale(0.100000,-0.100000)"
fill="#000000" stroke="none">
<path d="M0 1500 l0 -1500 1500 0 1500 0 0 1500 0 1500 -1500 0 -1500 0 0
-1500z m1629 577 c72 -125 131 -229 131 -232 0 -3 -119 -5 -265 -5 -146 0
-265 3 -265 6 0 9 262 465 265 462 1 -2 61 -105 134 -231z m122 -284 c-15 -29
-253 -438 -256 -441 -2 -3 -254 427 -263 450 -2 4 116 8 263 8 250 0 265 -1
256 -17z m-417 -238 l126 -220 -136 -3 c-74 -1 -193 -1 -264 0 l-129 3 131
228 c72 125 135 224 138 220 4 -4 64 -107 134 -228z m648 -90 l75 -130 -260
-3 c-143 -1 -262 0 -264 2 -4 3 163 298 239 424 l21 33 57 -98 c31 -54 91
-156 132 -228z m-540 -207 c-11 -18 -70 -121 -132 -228 -62 -107 -114 -196
-115 -198 -2 -2 -229 389 -262 451 -2 4 116 7 262 7 l267 0 -20 -32z m591 -16
c-16 -26 -75 -130 -133 -230 -57 -100 -107 -182 -110 -182 -6 1 -260 444 -260
454 0 3 119 6 265 6 l265 0 -27 -48z m-999 -206 c69 -121 125 -221 123 -223
-2 -2 -121 -2 -265 -1 l-261 3 131 228 c72 125 134 224 138 220 4 -4 64 -107
134 -227z m1199 -6 l125 -215 -261 -3 c-143 -1 -262 0 -264 2 -3 2 48 96 112
208 154 266 146 254 155 237 5 -8 65 -111 133 -229z"/>
</g>
</svg>
